ISO-10303-21;
HEADER;
FILE_DESCRIPTION(('Platine de cheminement - demonstration'),'2;1');
FILE_NAME('Platine de cheminement - demonstration','2026-01-01T00:00:00',('cheminement'),('cheminement'),'','','');
FILE_SCHEMA(('AUTOMOTIVE_DESIGN { 1 0 10303 214 1 1 1 1 }'));
ENDSEC;
DATA;
#863 = APPLICATION_CONTEXT('automotive design');
#864 = APPLICATION_PROTOCOL_DEFINITION('international standard','automotive_design',2000,#863);
#865 = PRODUCT_CONTEXT('',#863,'mechanical');
#866 = PRODUCT_DEFINITION_CONTEXT('part definition',#863,'design');
#867 = ( LENGTH_UNIT() NAMED_UNIT(*) SI_UNIT(.MILLI.,.METRE.) );
#868 = ( NAMED_UNIT(*) PLANE_ANGLE_UNIT() SI_UNIT($,.RADIAN.) );
#869 = ( NAMED_UNIT(*) SI_UNIT($,.STERADIAN.) SOLID_ANGLE_UNIT() );
#870 = UNCERTAINTY_MEASUREMENT_WITH_UNIT(LENGTH_MEASURE(1.E-07),#867,'distance_accuracy_value','confusion accuracy');
#871 = ( GEOMETRIC_REPRESENTATION_CONTEXT(3) GLOBAL_UNCERTAINTY_ASSIGNED_CONTEXT((#870)) GLOBAL_UNIT_ASSIGNED_CONTEXT((#867,#868,#869)) REPRESENTATION_CONTEXT('',''));
#1 = DIRECTION('',(0.,1.,0.));
#2 = VECTOR('',#1,1.);
#3 = CARTESIAN_POINT('',(0.,0.,0.));
#4 = LINE('',#3,#2);
#5 = VERTEX_POINT('',#3);
#6 = CARTESIAN_POINT('',(0.,400.,0.));
#7 = VERTEX_POINT('',#6);
#8 = EDGE_CURVE('',#5,#7,#4,.T.);
#9 = ORIENTED_EDGE('',*,*,#8,.T.);
#10 = DIRECTION('',(1.,0.,0.));
#11 = VECTOR('',#10,1.);
#12 = LINE('',#6,#11);
#13 = CARTESIAN_POINT('',(800.,400.,0.));
#14 = VERTEX_POINT('',#13);
#15 = EDGE_CURVE('',#7,#14,#12,.T.);
#16 = ORIENTED_EDGE('',*,*,#15,.T.);
#17 = DIRECTION('',(0.,-1.,0.));
#18 = VECTOR('',#17,1.);
#19 = LINE('',#13,#18);
#20 = CARTESIAN_POINT('',(800.,0.,0.));
#21 = VERTEX_POINT('',#20);
#22 = EDGE_CURVE('',#14,#21,#19,.T.);
#23 = ORIENTED_EDGE('',*,*,#22,.T.);
#24 = DIRECTION('',(-1.,0.,0.));
#25 = VECTOR('',#24,1.);
#26 = LINE('',#20,#25);
#27 = EDGE_CURVE('',#21,#5,#26,.T.);
#28 = ORIENTED_EDGE('',*,*,#27,.T.);
#29 = EDGE_LOOP('',(#9,#16,#23,#28));
#30 = CARTESIAN_POINT('',(150.,200.,0.));
#31 = DIRECTION('',(0.,0.,1.));
#32 = AXIS2_PLACEMENT_3D('',#30,#31,#10);
#33 = CIRCLE('',#32,4.25);
#34 = CARTESIAN_POINT('',(154.25,200.,0.));
#35 = VERTEX_POINT('',#34);
#36 = CARTESIAN_POINT('',(145.75,200.,0.));
#37 = VERTEX_POINT('',#36);
#38 = EDGE_CURVE('',#35,#37,#33,.T.);
#39 = AXIS2_PLACEMENT_3D('',#30,#31,#10);
#40 = CIRCLE('',#39,4.25);
#41 = EDGE_CURVE('',#37,#35,#40,.T.);
#42 = ORIENTED_EDGE('',*,*,#38,.T.);
#43 = ORIENTED_EDGE('',*,*,#41,.T.);
#44 = EDGE_LOOP('',(#42,#43));
#45 = CARTESIAN_POINT('',(300.,200.,0.));
#46 = AXIS2_PLACEMENT_3D('',#45,#31,#10);
#47 = CIRCLE('',#46,4.25);
#48 = CARTESIAN_POINT('',(304.25,200.,0.));
#49 = VERTEX_POINT('',#48);
#50 = CARTESIAN_POINT('',(295.75,200.,0.));
#51 = VERTEX_POINT('',#50);
#52 = EDGE_CURVE('',#49,#51,#47,.T.);
#53 = AXIS2_PLACEMENT_3D('',#45,#31,#10);
#54 = CIRCLE('',#53,4.25);
#55 = EDGE_CURVE('',#51,#49,#54,.T.);
#56 = ORIENTED_EDGE('',*,*,#52,.T.);
#57 = ORIENTED_EDGE('',*,*,#55,.T.);
#58 = EDGE_LOOP('',(#56,#57));
#59 = CARTESIAN_POINT('',(450.,200.,0.));
#60 = AXIS2_PLACEMENT_3D('',#59,#31,#10);
#61 = CIRCLE('',#60,4.25);
#62 = CARTESIAN_POINT('',(454.25,200.,0.));
#63 = VERTEX_POINT('',#62);
#64 = CARTESIAN_POINT('',(445.75,200.,0.));
#65 = VERTEX_POINT('',#64);
#66 = EDGE_CURVE('',#63,#65,#61,.T.);
#67 = AXIS2_PLACEMENT_3D('',#59,#31,#10);
#68 = CIRCLE('',#67,4.25);
#69 = EDGE_CURVE('',#65,#63,#68,.T.);
#70 = ORIENTED_EDGE('',*,*,#66,.T.);
#71 = ORIENTED_EDGE('',*,*,#69,.T.);
#72 = EDGE_LOOP('',(#70,#71));
#73 = CARTESIAN_POINT('',(600.,200.,0.));
#74 = AXIS2_PLACEMENT_3D('',#73,#31,#10);
#75 = CIRCLE('',#74,4.25);
#76 = CARTESIAN_POINT('',(604.25,200.,0.));
#77 = VERTEX_POINT('',#76);
#78 = CARTESIAN_POINT('',(595.75,200.,0.));
#79 = VERTEX_POINT('',#78);
#80 = EDGE_CURVE('',#77,#79,#75,.T.);
#81 = AXIS2_PLACEMENT_3D('',#73,#31,#10);
#82 = CIRCLE('',#81,4.25);
#83 = EDGE_CURVE('',#79,#77,#82,.T.);
#84 = ORIENTED_EDGE('',*,*,#80,.T.);
#85 = ORIENTED_EDGE('',*,*,#83,.T.);
#86 = EDGE_LOOP('',(#84,#85));
#87 = CARTESIAN_POINT('',(30.,30.,0.));
#88 = AXIS2_PLACEMENT_3D('',#87,#31,#10);
#89 = CIRCLE('',#88,5.);
#90 = CARTESIAN_POINT('',(35.,30.,0.));
#91 = VERTEX_POINT('',#90);
#92 = CARTESIAN_POINT('',(25.,30.,0.));
#93 = VERTEX_POINT('',#92);
#94 = EDGE_CURVE('',#91,#93,#89,.T.);
#95 = AXIS2_PLACEMENT_3D('',#87,#31,#10);
#96 = CIRCLE('',#95,5.);
#97 = EDGE_CURVE('',#93,#91,#96,.T.);
#98 = ORIENTED_EDGE('',*,*,#94,.T.);
#99 = ORIENTED_EDGE('',*,*,#97,.T.);
#100 = EDGE_LOOP('',(#98,#99));
#101 = CARTESIAN_POINT('',(770.,30.,0.));
#102 = AXIS2_PLACEMENT_3D('',#101,#31,#10);
#103 = CIRCLE('',#102,5.);
#104 = CARTESIAN_POINT('',(775.,30.,0.));
#105 = VERTEX_POINT('',#104);
#106 = CARTESIAN_POINT('',(765.,30.,0.));
#107 = VERTEX_POINT('',#106);
#108 = EDGE_CURVE('',#105,#107,#103,.T.);
#109 = AXIS2_PLACEMENT_3D('',#101,#31,#10);
#110 = CIRCLE('',#109,5.);
#111 = EDGE_CURVE('',#107,#105,#110,.T.);
#112 = ORIENTED_EDGE('',*,*,#108,.T.);
#113 = ORIENTED_EDGE('',*,*,#111,.T.);
#114 = EDGE_LOOP('',(#112,#113));
#115 = CARTESIAN_POINT('',(30.,370.,0.));
#116 = AXIS2_PLACEMENT_3D('',#115,#31,#10);
#117 = CIRCLE('',#116,5.);
#118 = CARTESIAN_POINT('',(35.,370.,0.));
#119 = VERTEX_POINT('',#118);
#120 = CARTESIAN_POINT('',(25.,370.,0.));
#121 = VERTEX_POINT('',#120);
#122 = EDGE_CURVE('',#119,#121,#117,.T.);
#123 = AXIS2_PLACEMENT_3D('',#115,#31,#10);
#124 = CIRCLE('',#123,5.);
#125 = EDGE_CURVE('',#121,#119,#124,.T.);
#126 = ORIENTED_EDGE('',*,*,#122,.T.);
#127 = ORIENTED_EDGE('',*,*,#125,.T.);
#128 = EDGE_LOOP('',(#126,#127));
#129 = CARTESIAN_POINT('',(770.,370.,0.));
#130 = AXIS2_PLACEMENT_3D('',#129,#31,#10);
#131 = CIRCLE('',#130,5.);
#132 = CARTESIAN_POINT('',(775.,370.,0.));
#133 = VERTEX_POINT('',#132);
#134 = CARTESIAN_POINT('',(765.,370.,0.));
#135 = VERTEX_POINT('',#134);
#136 = EDGE_CURVE('',#133,#135,#131,.T.);
#137 = AXIS2_PLACEMENT_3D('',#129,#31,#10);
#138 = CIRCLE('',#137,5.);
#139 = EDGE_CURVE('',#135,#133,#138,.T.);
#140 = ORIENTED_EDGE('',*,*,#136,.T.);
#141 = ORIENTED_EDGE('',*,*,#139,.T.);
#142 = EDGE_LOOP('',(#140,#141));
#143 = DIRECTION('',(0.,0.,-1.));
#144 = AXIS2_PLACEMENT_3D('',#3,#143,#10);
#145 = PLANE('',#144);
#146 = FACE_OUTER_BOUND('',#29,.T.);
#147 = FACE_BOUND('',#44,.T.);
#148 = FACE_BOUND('',#58,.T.);
#149 = FACE_BOUND('',#72,.T.);
#150 = FACE_BOUND('',#86,.T.);
#151 = FACE_BOUND('',#100,.T.);
#152 = FACE_BOUND('',#114,.T.);
#153 = FACE_BOUND('',#128,.T.);
#154 = FACE_BOUND('',#142,.T.);
#155 = ADVANCED_FACE('',(#146,#147,#148,#149,#150,#151,#152,#153,#154),#145,.T.);
#156 = VECTOR('',#10,1.);
#157 = CARTESIAN_POINT('',(0.,0.,10.));
#158 = LINE('',#157,#156);
#159 = VERTEX_POINT('',#157);
#160 = CARTESIAN_POINT('',(800.,0.,10.));
#161 = VERTEX_POINT('',#160);
#162 = EDGE_CURVE('',#159,#161,#158,.T.);
#163 = ORIENTED_EDGE('',*,*,#162,.T.);
#164 = VECTOR('',#1,1.);
#165 = LINE('',#160,#164);
#166 = CARTESIAN_POINT('',(800.,400.,10.));
#167 = VERTEX_POINT('',#166);
#168 = EDGE_CURVE('',#161,#167,#165,.T.);
#169 = ORIENTED_EDGE('',*,*,#168,.T.);
#170 = VECTOR('',#24,1.);
#171 = LINE('',#166,#170);
#172 = CARTESIAN_POINT('',(0.,400.,10.));
#173 = VERTEX_POINT('',#172);
#174 = EDGE_CURVE('',#167,#173,#171,.T.);
#175 = ORIENTED_EDGE('',*,*,#174,.T.);
#176 = VECTOR('',#17,1.);
#177 = LINE('',#172,#176);
#178 = EDGE_CURVE('',#173,#159,#177,.T.);
#179 = ORIENTED_EDGE('',*,*,#178,.T.);
#180 = EDGE_LOOP('',(#163,#169,#175,#179));
#181 = CARTESIAN_POINT('',(150.,200.,10.));
#182 = AXIS2_PLACEMENT_3D('',#181,#31,#10);
#183 = CIRCLE('',#182,4.25);
#184 = CARTESIAN_POINT('',(154.25,200.,10.));
#185 = VERTEX_POINT('',#184);
#186 = CARTESIAN_POINT('',(145.75,200.,10.));
#187 = VERTEX_POINT('',#186);
#188 = EDGE_CURVE('',#185,#187,#183,.T.);
#189 = AXIS2_PLACEMENT_3D('',#181,#31,#10);
#190 = CIRCLE('',#189,4.25);
#191 = EDGE_CURVE('',#187,#185,#190,.T.);
#192 = ORIENTED_EDGE('',*,*,#191,.F.);
#193 = ORIENTED_EDGE('',*,*,#188,.F.);
#194 = EDGE_LOOP('',(#192,#193));
#195 = CARTESIAN_POINT('',(300.,200.,10.));
#196 = AXIS2_PLACEMENT_3D('',#195,#31,#10);
#197 = CIRCLE('',#196,4.25);
#198 = CARTESIAN_POINT('',(304.25,200.,10.));
#199 = VERTEX_POINT('',#198);
#200 = CARTESIAN_POINT('',(295.75,200.,10.));
#201 = VERTEX_POINT('',#200);
#202 = EDGE_CURVE('',#199,#201,#197,.T.);
#203 = AXIS2_PLACEMENT_3D('',#195,#31,#10);
#204 = CIRCLE('',#203,4.25);
#205 = EDGE_CURVE('',#201,#199,#204,.T.);
#206 = ORIENTED_EDGE('',*,*,#205,.F.);
#207 = ORIENTED_EDGE('',*,*,#202,.F.);
#208 = EDGE_LOOP('',(#206,#207));
#209 = CARTESIAN_POINT('',(450.,200.,10.));
#210 = AXIS2_PLACEMENT_3D('',#209,#31,#10);
#211 = CIRCLE('',#210,4.25);
#212 = CARTESIAN_POINT('',(454.25,200.,10.));
#213 = VERTEX_POINT('',#212);
#214 = CARTESIAN_POINT('',(445.75,200.,10.));
#215 = VERTEX_POINT('',#214);
#216 = EDGE_CURVE('',#213,#215,#211,.T.);
#217 = AXIS2_PLACEMENT_3D('',#209,#31,#10);
#218 = CIRCLE('',#217,4.25);
#219 = EDGE_CURVE('',#215,#213,#218,.T.);
#220 = ORIENTED_EDGE('',*,*,#219,.F.);
#221 = ORIENTED_EDGE('',*,*,#216,.F.);
#222 = EDGE_LOOP('',(#220,#221));
#223 = CARTESIAN_POINT('',(600.,200.,10.));
#224 = AXIS2_PLACEMENT_3D('',#223,#31,#10);
#225 = CIRCLE('',#224,4.25);
#226 = CARTESIAN_POINT('',(604.25,200.,10.));
#227 = VERTEX_POINT('',#226);
#228 = CARTESIAN_POINT('',(595.75,200.,10.));
#229 = VERTEX_POINT('',#228);
#230 = EDGE_CURVE('',#227,#229,#225,.T.);
#231 = AXIS2_PLACEMENT_3D('',#223,#31,#10);
#232 = CIRCLE('',#231,4.25);
#233 = EDGE_CURVE('',#229,#227,#232,.T.);
#234 = ORIENTED_EDGE('',*,*,#233,.F.);
#235 = ORIENTED_EDGE('',*,*,#230,.F.);
#236 = EDGE_LOOP('',(#234,#235));
#237 = CARTESIAN_POINT('',(30.,30.,10.));
#238 = AXIS2_PLACEMENT_3D('',#237,#31,#10);
#239 = CIRCLE('',#238,5.);
#240 = CARTESIAN_POINT('',(35.,30.,10.));
#241 = VERTEX_POINT('',#240);
#242 = CARTESIAN_POINT('',(25.,30.,10.));
#243 = VERTEX_POINT('',#242);
#244 = EDGE_CURVE('',#241,#243,#239,.T.);
#245 = AXIS2_PLACEMENT_3D('',#237,#31,#10);
#246 = CIRCLE('',#245,5.);
#247 = EDGE_CURVE('',#243,#241,#246,.T.);
#248 = ORIENTED_EDGE('',*,*,#247,.F.);
#249 = ORIENTED_EDGE('',*,*,#244,.F.);
#250 = EDGE_LOOP('',(#248,#249));
#251 = CARTESIAN_POINT('',(770.,30.,10.));
#252 = AXIS2_PLACEMENT_3D('',#251,#31,#10);
#253 = CIRCLE('',#252,5.);
#254 = CARTESIAN_POINT('',(775.,30.,10.));
#255 = VERTEX_POINT('',#254);
#256 = CARTESIAN_POINT('',(765.,30.,10.));
#257 = VERTEX_POINT('',#256);
#258 = EDGE_CURVE('',#255,#257,#253,.T.);
#259 = AXIS2_PLACEMENT_3D('',#251,#31,#10);
#260 = CIRCLE('',#259,5.);
#261 = EDGE_CURVE('',#257,#255,#260,.T.);
#262 = ORIENTED_EDGE('',*,*,#261,.F.);
#263 = ORIENTED_EDGE('',*,*,#258,.F.);
#264 = EDGE_LOOP('',(#262,#263));
#265 = CARTESIAN_POINT('',(30.,370.,10.));
#266 = AXIS2_PLACEMENT_3D('',#265,#31,#10);
#267 = CIRCLE('',#266,5.);
#268 = CARTESIAN_POINT('',(35.,370.,10.));
#269 = VERTEX_POINT('',#268);
#270 = CARTESIAN_POINT('',(25.,370.,10.));
#271 = VERTEX_POINT('',#270);
#272 = EDGE_CURVE('',#269,#271,#267,.T.);
#273 = AXIS2_PLACEMENT_3D('',#265,#31,#10);
#274 = CIRCLE('',#273,5.);
#275 = EDGE_CURVE('',#271,#269,#274,.T.);
#276 = ORIENTED_EDGE('',*,*,#275,.F.);
#277 = ORIENTED_EDGE('',*,*,#272,.F.);
#278 = EDGE_LOOP('',(#276,#277));
#279 = CARTESIAN_POINT('',(770.,370.,10.));
#280 = AXIS2_PLACEMENT_3D('',#279,#31,#10);
#281 = CIRCLE('',#280,5.);
#282 = CARTESIAN_POINT('',(775.,370.,10.));
#283 = VERTEX_POINT('',#282);
#284 = CARTESIAN_POINT('',(765.,370.,10.));
#285 = VERTEX_POINT('',#284);
#286 = EDGE_CURVE('',#283,#285,#281,.T.);
#287 = AXIS2_PLACEMENT_3D('',#279,#31,#10);
#288 = CIRCLE('',#287,5.);
#289 = EDGE_CURVE('',#285,#283,#288,.T.);
#290 = ORIENTED_EDGE('',*,*,#289,.F.);
#291 = ORIENTED_EDGE('',*,*,#286,.F.);
#292 = EDGE_LOOP('',(#290,#291));
#293 = AXIS2_PLACEMENT_3D('',#157,#31,#10);
#294 = PLANE('',#293);
#295 = FACE_OUTER_BOUND('',#180,.T.);
#296 = FACE_BOUND('',#194,.T.);
#297 = FACE_BOUND('',#208,.T.);
#298 = FACE_BOUND('',#222,.T.);
#299 = FACE_BOUND('',#236,.T.);
#300 = FACE_BOUND('',#250,.T.);
#301 = FACE_BOUND('',#264,.T.);
#302 = FACE_BOUND('',#278,.T.);
#303 = FACE_BOUND('',#292,.T.);
#304 = ADVANCED_FACE('',(#295,#296,#297,#298,#299,#300,#301,#302,#303),#294,.T.);
#305 = ORIENTED_EDGE('',*,*,#27,.T.);
#306 = VECTOR('',#31,1.);
#307 = LINE('',#20,#306);
#308 = EDGE_CURVE('',#21,#161,#307,.T.);
#309 = ORIENTED_EDGE('',*,*,#308,.T.);
#310 = ORIENTED_EDGE('',*,*,#162,.T.);
#311 = VECTOR('',#143,1.);
#312 = LINE('',#157,#311);
#313 = EDGE_CURVE('',#159,#5,#312,.T.);
#314 = ORIENTED_EDGE('',*,*,#313,.T.);
#315 = EDGE_LOOP('',(#305,#309,#310,#314));
#316 = AXIS2_PLACEMENT_3D('',#3,#1,#31);
#317 = PLANE('',#316);
#318 = FACE_OUTER_BOUND('',#315,.T.);
#319 = ADVANCED_FACE('',(#318),#317,.T.);
#320 = ORIENTED_EDGE('',*,*,#22,.T.);
#321 = VECTOR('',#31,1.);
#322 = LINE('',#13,#321);
#323 = EDGE_CURVE('',#14,#167,#322,.T.);
#324 = ORIENTED_EDGE('',*,*,#323,.T.);
#325 = ORIENTED_EDGE('',*,*,#168,.T.);
#326 = ORIENTED_EDGE('',*,*,#308,.T.);
#327 = EDGE_LOOP('',(#320,#324,#325,#326));
#328 = AXIS2_PLACEMENT_3D('',#20,#24,#31);
#329 = PLANE('',#328);
#330 = FACE_OUTER_BOUND('',#327,.T.);
#331 = ADVANCED_FACE('',(#330),#329,.T.);
#332 = ORIENTED_EDGE('',*,*,#15,.T.);
#333 = VECTOR('',#31,1.);
#334 = LINE('',#6,#333);
#335 = EDGE_CURVE('',#7,#173,#334,.T.);
#336 = ORIENTED_EDGE('',*,*,#335,.T.);
#337 = ORIENTED_EDGE('',*,*,#174,.T.);
#338 = ORIENTED_EDGE('',*,*,#323,.T.);
#339 = EDGE_LOOP('',(#332,#336,#337,#338));
#340 = AXIS2_PLACEMENT_3D('',#13,#17,#31);
#341 = PLANE('',#340);
#342 = FACE_OUTER_BOUND('',#339,.T.);
#343 = ADVANCED_FACE('',(#342),#341,.T.);
#344 = ORIENTED_EDGE('',*,*,#8,.T.);
#345 = ORIENTED_EDGE('',*,*,#313,.T.);
#346 = ORIENTED_EDGE('',*,*,#178,.T.);
#347 = ORIENTED_EDGE('',*,*,#335,.T.);
#348 = EDGE_LOOP('',(#344,#345,#346,#347));
#349 = AXIS2_PLACEMENT_3D('',#6,#10,#31);
#350 = PLANE('',#349);
#351 = FACE_OUTER_BOUND('',#348,.T.);
#352 = ADVANCED_FACE('',(#351),#350,.T.);
#353 = VECTOR('',#31,1.);
#354 = LINE('',#34,#353);
#355 = EDGE_CURVE('',#35,#185,#354,.T.);
#356 = VECTOR('',#31,1.);
#357 = LINE('',#36,#356);
#358 = EDGE_CURVE('',#37,#187,#357,.T.);
#359 = ORIENTED_EDGE('',*,*,#38,.T.);
#360 = ORIENTED_EDGE('',*,*,#358,.T.);
#361 = ORIENTED_EDGE('',*,*,#188,.F.);
#362 = ORIENTED_EDGE('',*,*,#355,.F.);
#363 = EDGE_LOOP('',(#359,#360,#361,#362));
#364 = AXIS2_PLACEMENT_3D('',#30,#31,#10);
#365 = CYLINDRICAL_SURFACE('',#364,4.25);
#366 = FACE_OUTER_BOUND('',#363,.T.);
#367 = ADVANCED_FACE('',(#366),#365,.T.);
#368 = ORIENTED_EDGE('',*,*,#41,.T.);
#369 = ORIENTED_EDGE('',*,*,#355,.T.);
#370 = ORIENTED_EDGE('',*,*,#191,.F.);
#371 = ORIENTED_EDGE('',*,*,#358,.F.);
#372 = EDGE_LOOP('',(#368,#369,#370,#371));
#373 = AXIS2_PLACEMENT_3D('',#30,#31,#10);
#374 = CYLINDRICAL_SURFACE('',#373,4.25);
#375 = FACE_OUTER_BOUND('',#372,.T.);
#376 = ADVANCED_FACE('',(#375),#374,.T.);
#377 = VECTOR('',#31,1.);
#378 = LINE('',#48,#377);
#379 = EDGE_CURVE('',#49,#199,#378,.T.);
#380 = VECTOR('',#31,1.);
#381 = LINE('',#50,#380);
#382 = EDGE_CURVE('',#51,#201,#381,.T.);
#383 = ORIENTED_EDGE('',*,*,#52,.T.);
#384 = ORIENTED_EDGE('',*,*,#382,.T.);
#385 = ORIENTED_EDGE('',*,*,#202,.F.);
#386 = ORIENTED_EDGE('',*,*,#379,.F.);
#387 = EDGE_LOOP('',(#383,#384,#385,#386));
#388 = AXIS2_PLACEMENT_3D('',#45,#31,#10);
#389 = CYLINDRICAL_SURFACE('',#388,4.25);
#390 = FACE_OUTER_BOUND('',#387,.T.);
#391 = ADVANCED_FACE('',(#390),#389,.T.);
#392 = ORIENTED_EDGE('',*,*,#55,.T.);
#393 = ORIENTED_EDGE('',*,*,#379,.T.);
#394 = ORIENTED_EDGE('',*,*,#205,.F.);
#395 = ORIENTED_EDGE('',*,*,#382,.F.);
#396 = EDGE_LOOP('',(#392,#393,#394,#395));
#397 = AXIS2_PLACEMENT_3D('',#45,#31,#10);
#398 = CYLINDRICAL_SURFACE('',#397,4.25);
#399 = FACE_OUTER_BOUND('',#396,.T.);
#400 = ADVANCED_FACE('',(#399),#398,.T.);
#401 = VECTOR('',#31,1.);
#402 = LINE('',#62,#401);
#403 = EDGE_CURVE('',#63,#213,#402,.T.);
#404 = VECTOR('',#31,1.);
#405 = LINE('',#64,#404);
#406 = EDGE_CURVE('',#65,#215,#405,.T.);
#407 = ORIENTED_EDGE('',*,*,#66,.T.);
#408 = ORIENTED_EDGE('',*,*,#406,.T.);
#409 = ORIENTED_EDGE('',*,*,#216,.F.);
#410 = ORIENTED_EDGE('',*,*,#403,.F.);
#411 = EDGE_LOOP('',(#407,#408,#409,#410));
#412 = AXIS2_PLACEMENT_3D('',#59,#31,#10);
#413 = CYLINDRICAL_SURFACE('',#412,4.25);
#414 = FACE_OUTER_BOUND('',#411,.T.);
#415 = ADVANCED_FACE('',(#414),#413,.T.);
#416 = ORIENTED_EDGE('',*,*,#69,.T.);
#417 = ORIENTED_EDGE('',*,*,#403,.T.);
#418 = ORIENTED_EDGE('',*,*,#219,.F.);
#419 = ORIENTED_EDGE('',*,*,#406,.F.);
#420 = EDGE_LOOP('',(#416,#417,#418,#419));
#421 = AXIS2_PLACEMENT_3D('',#59,#31,#10);
#422 = CYLINDRICAL_SURFACE('',#421,4.25);
#423 = FACE_OUTER_BOUND('',#420,.T.);
#424 = ADVANCED_FACE('',(#423),#422,.T.);
#425 = VECTOR('',#31,1.);
#426 = LINE('',#76,#425);
#427 = EDGE_CURVE('',#77,#227,#426,.T.);
#428 = VECTOR('',#31,1.);
#429 = LINE('',#78,#428);
#430 = EDGE_CURVE('',#79,#229,#429,.T.);
#431 = ORIENTED_EDGE('',*,*,#80,.T.);
#432 = ORIENTED_EDGE('',*,*,#430,.T.);
#433 = ORIENTED_EDGE('',*,*,#230,.F.);
#434 = ORIENTED_EDGE('',*,*,#427,.F.);
#435 = EDGE_LOOP('',(#431,#432,#433,#434));
#436 = AXIS2_PLACEMENT_3D('',#73,#31,#10);
#437 = CYLINDRICAL_SURFACE('',#436,4.25);
#438 = FACE_OUTER_BOUND('',#435,.T.);
#439 = ADVANCED_FACE('',(#438),#437,.T.);
#440 = ORIENTED_EDGE('',*,*,#83,.T.);
#441 = ORIENTED_EDGE('',*,*,#427,.T.);
#442 = ORIENTED_EDGE('',*,*,#233,.F.);
#443 = ORIENTED_EDGE('',*,*,#430,.F.);
#444 = EDGE_LOOP('',(#440,#441,#442,#443));
#445 = AXIS2_PLACEMENT_3D('',#73,#31,#10);
#446 = CYLINDRICAL_SURFACE('',#445,4.25);
#447 = FACE_OUTER_BOUND('',#444,.T.);
#448 = ADVANCED_FACE('',(#447),#446,.T.);
#449 = VECTOR('',#31,1.);
#450 = LINE('',#90,#449);
#451 = EDGE_CURVE('',#91,#241,#450,.T.);
#452 = VECTOR('',#31,1.);
#453 = LINE('',#92,#452);
#454 = EDGE_CURVE('',#93,#243,#453,.T.);
#455 = ORIENTED_EDGE('',*,*,#94,.T.);
#456 = ORIENTED_EDGE('',*,*,#454,.T.);
#457 = ORIENTED_EDGE('',*,*,#244,.F.);
#458 = ORIENTED_EDGE('',*,*,#451,.F.);
#459 = EDGE_LOOP('',(#455,#456,#457,#458));
#460 = AXIS2_PLACEMENT_3D('',#87,#31,#10);
#461 = CYLINDRICAL_SURFACE('',#460,5.);
#462 = FACE_OUTER_BOUND('',#459,.T.);
#463 = ADVANCED_FACE('',(#462),#461,.T.);
#464 = ORIENTED_EDGE('',*,*,#97,.T.);
#465 = ORIENTED_EDGE('',*,*,#451,.T.);
#466 = ORIENTED_EDGE('',*,*,#247,.F.);
#467 = ORIENTED_EDGE('',*,*,#454,.F.);
#468 = EDGE_LOOP('',(#464,#465,#466,#467));
#469 = AXIS2_PLACEMENT_3D('',#87,#31,#10);
#470 = CYLINDRICAL_SURFACE('',#469,5.);
#471 = FACE_OUTER_BOUND('',#468,.T.);
#472 = ADVANCED_FACE('',(#471),#470,.T.);
#473 = VECTOR('',#31,1.);
#474 = LINE('',#104,#473);
#475 = EDGE_CURVE('',#105,#255,#474,.T.);
#476 = VECTOR('',#31,1.);
#477 = LINE('',#106,#476);
#478 = EDGE_CURVE('',#107,#257,#477,.T.);
#479 = ORIENTED_EDGE('',*,*,#108,.T.);
#480 = ORIENTED_EDGE('',*,*,#478,.T.);
#481 = ORIENTED_EDGE('',*,*,#258,.F.);
#482 = ORIENTED_EDGE('',*,*,#475,.F.);
#483 = EDGE_LOOP('',(#479,#480,#481,#482));
#484 = AXIS2_PLACEMENT_3D('',#101,#31,#10);
#485 = CYLINDRICAL_SURFACE('',#484,5.);
#486 = FACE_OUTER_BOUND('',#483,.T.);
#487 = ADVANCED_FACE('',(#486),#485,.T.);
#488 = ORIENTED_EDGE('',*,*,#111,.T.);
#489 = ORIENTED_EDGE('',*,*,#475,.T.);
#490 = ORIENTED_EDGE('',*,*,#261,.F.);
#491 = ORIENTED_EDGE('',*,*,#478,.F.);
#492 = EDGE_LOOP('',(#488,#489,#490,#491));
#493 = AXIS2_PLACEMENT_3D('',#101,#31,#10);
#494 = CYLINDRICAL_SURFACE('',#493,5.);
#495 = FACE_OUTER_BOUND('',#492,.T.);
#496 = ADVANCED_FACE('',(#495),#494,.T.);
#497 = VECTOR('',#31,1.);
#498 = LINE('',#118,#497);
#499 = EDGE_CURVE('',#119,#269,#498,.T.);
#500 = VECTOR('',#31,1.);
#501 = LINE('',#120,#500);
#502 = EDGE_CURVE('',#121,#271,#501,.T.);
#503 = ORIENTED_EDGE('',*,*,#122,.T.);
#504 = ORIENTED_EDGE('',*,*,#502,.T.);
#505 = ORIENTED_EDGE('',*,*,#272,.F.);
#506 = ORIENTED_EDGE('',*,*,#499,.F.);
#507 = EDGE_LOOP('',(#503,#504,#505,#506));
#508 = AXIS2_PLACEMENT_3D('',#115,#31,#10);
#509 = CYLINDRICAL_SURFACE('',#508,5.);
#510 = FACE_OUTER_BOUND('',#507,.T.);
#511 = ADVANCED_FACE('',(#510),#509,.T.);
#512 = ORIENTED_EDGE('',*,*,#125,.T.);
#513 = ORIENTED_EDGE('',*,*,#499,.T.);
#514 = ORIENTED_EDGE('',*,*,#275,.F.);
#515 = ORIENTED_EDGE('',*,*,#502,.F.);
#516 = EDGE_LOOP('',(#512,#513,#514,#515));
#517 = AXIS2_PLACEMENT_3D('',#115,#31,#10);
#518 = CYLINDRICAL_SURFACE('',#517,5.);
#519 = FACE_OUTER_BOUND('',#516,.T.);
#520 = ADVANCED_FACE('',(#519),#518,.T.);
#521 = VECTOR('',#31,1.);
#522 = LINE('',#132,#521);
#523 = EDGE_CURVE('',#133,#283,#522,.T.);
#524 = VECTOR('',#31,1.);
#525 = LINE('',#134,#524);
#526 = EDGE_CURVE('',#135,#285,#525,.T.);
#527 = ORIENTED_EDGE('',*,*,#136,.T.);
#528 = ORIENTED_EDGE('',*,*,#526,.T.);
#529 = ORIENTED_EDGE('',*,*,#286,.F.);
#530 = ORIENTED_EDGE('',*,*,#523,.F.);
#531 = EDGE_LOOP('',(#527,#528,#529,#530));
#532 = AXIS2_PLACEMENT_3D('',#129,#31,#10);
#533 = CYLINDRICAL_SURFACE('',#532,5.);
#534 = FACE_OUTER_BOUND('',#531,.T.);
#535 = ADVANCED_FACE('',(#534),#533,.T.);
#536 = ORIENTED_EDGE('',*,*,#139,.T.);
#537 = ORIENTED_EDGE('',*,*,#523,.T.);
#538 = ORIENTED_EDGE('',*,*,#289,.F.);
#539 = ORIENTED_EDGE('',*,*,#526,.F.);
#540 = EDGE_LOOP('',(#536,#537,#538,#539));
#541 = AXIS2_PLACEMENT_3D('',#129,#31,#10);
#542 = CYLINDRICAL_SURFACE('',#541,5.);
#543 = FACE_OUTER_BOUND('',#540,.T.);
#544 = ADVANCED_FACE('',(#543),#542,.T.);
#545 = VECTOR('',#1,1.);
#546 = CARTESIAN_POINT('',(40.,150.,10.));
#547 = LINE('',#546,#545);
#548 = VERTEX_POINT('',#546);
#549 = CARTESIAN_POINT('',(40.,250.,10.));
#550 = VERTEX_POINT('',#549);
#551 = EDGE_CURVE('',#548,#550,#547,.T.);
#552 = ORIENTED_EDGE('',*,*,#551,.T.);
#553 = VECTOR('',#10,1.);
#554 = LINE('',#549,#553);
#555 = CARTESIAN_POINT('',(100.,250.,10.));
#556 = VERTEX_POINT('',#555);
#557 = EDGE_CURVE('',#550,#556,#554,.T.);
#558 = ORIENTED_EDGE('',*,*,#557,.T.);
#559 = VECTOR('',#17,1.);
#560 = LINE('',#555,#559);
#561 = CARTESIAN_POINT('',(100.,150.,10.));
#562 = VERTEX_POINT('',#561);
#563 = EDGE_CURVE('',#556,#562,#560,.T.);
#564 = ORIENTED_EDGE('',*,*,#563,.T.);
#565 = VECTOR('',#24,1.);
#566 = LINE('',#561,#565);
#567 = EDGE_CURVE('',#562,#548,#566,.T.);
#568 = ORIENTED_EDGE('',*,*,#567,.T.);
#569 = EDGE_LOOP('',(#552,#558,#564,#568));
#570 = AXIS2_PLACEMENT_3D('',#546,#143,#10);
#571 = PLANE('',#570);
#572 = FACE_OUTER_BOUND('',#569,.T.);
#573 = ADVANCED_FACE('',(#572),#571,.T.);
#574 = VECTOR('',#10,1.);
#575 = CARTESIAN_POINT('',(40.,150.,90.));
#576 = LINE('',#575,#574);
#577 = VERTEX_POINT('',#575);
#578 = CARTESIAN_POINT('',(100.,150.,90.));
#579 = VERTEX_POINT('',#578);
#580 = EDGE_CURVE('',#577,#579,#576,.T.);
#581 = ORIENTED_EDGE('',*,*,#580,.T.);
#582 = VECTOR('',#1,1.);
#583 = LINE('',#578,#582);
#584 = CARTESIAN_POINT('',(100.,250.,90.));
#585 = VERTEX_POINT('',#584);
#586 = EDGE_CURVE('',#579,#585,#583,.T.);
#587 = ORIENTED_EDGE('',*,*,#586,.T.);
#588 = VECTOR('',#24,1.);
#589 = LINE('',#584,#588);
#590 = CARTESIAN_POINT('',(40.,250.,90.));
#591 = VERTEX_POINT('',#590);
#592 = EDGE_CURVE('',#585,#591,#589,.T.);
#593 = ORIENTED_EDGE('',*,*,#592,.T.);
#594 = VECTOR('',#17,1.);
#595 = LINE('',#590,#594);
#596 = EDGE_CURVE('',#591,#577,#595,.T.);
#597 = ORIENTED_EDGE('',*,*,#596,.T.);
#598 = EDGE_LOOP('',(#581,#587,#593,#597));
#599 = AXIS2_PLACEMENT_3D('',#575,#31,#10);
#600 = PLANE('',#599);
#601 = FACE_OUTER_BOUND('',#598,.T.);
#602 = ADVANCED_FACE('',(#601),#600,.T.);
#603 = ORIENTED_EDGE('',*,*,#567,.T.);
#604 = VECTOR('',#31,1.);
#605 = LINE('',#561,#604);
#606 = EDGE_CURVE('',#562,#579,#605,.T.);
#607 = ORIENTED_EDGE('',*,*,#606,.T.);
#608 = ORIENTED_EDGE('',*,*,#580,.T.);
#609 = VECTOR('',#143,1.);
#610 = LINE('',#575,#609);
#611 = EDGE_CURVE('',#577,#548,#610,.T.);
#612 = ORIENTED_EDGE('',*,*,#611,.T.);
#613 = EDGE_LOOP('',(#603,#607,#608,#612));
#614 = AXIS2_PLACEMENT_3D('',#546,#17,#10);
#615 = PLANE('',#614);
#616 = FACE_OUTER_BOUND('',#613,.T.);
#617 = ADVANCED_FACE('',(#616),#615,.T.);
#618 = ORIENTED_EDGE('',*,*,#563,.T.);
#619 = VECTOR('',#31,1.);
#620 = LINE('',#555,#619);
#621 = EDGE_CURVE('',#556,#585,#620,.T.);
#622 = ORIENTED_EDGE('',*,*,#621,.T.);
#623 = ORIENTED_EDGE('',*,*,#586,.T.);
#624 = ORIENTED_EDGE('',*,*,#606,.T.);
#625 = EDGE_LOOP('',(#618,#622,#623,#624));
#626 = AXIS2_PLACEMENT_3D('',#561,#10,#1);
#627 = PLANE('',#626);
#628 = FACE_OUTER_BOUND('',#625,.T.);
#629 = ADVANCED_FACE('',(#628),#627,.T.);
#630 = ORIENTED_EDGE('',*,*,#557,.T.);
#631 = VECTOR('',#31,1.);
#632 = LINE('',#549,#631);
#633 = EDGE_CURVE('',#550,#591,#632,.T.);
#634 = ORIENTED_EDGE('',*,*,#633,.T.);
#635 = ORIENTED_EDGE('',*,*,#592,.T.);
#636 = ORIENTED_EDGE('',*,*,#621,.T.);
#637 = EDGE_LOOP('',(#630,#634,#635,#636));
#638 = AXIS2_PLACEMENT_3D('',#549,#1,#24);
#639 = PLANE('',#638);
#640 = FACE_OUTER_BOUND('',#637,.T.);
#641 = ADVANCED_FACE('',(#640),#639,.T.);
#642 = ORIENTED_EDGE('',*,*,#551,.T.);
#643 = ORIENTED_EDGE('',*,*,#611,.T.);
#644 = ORIENTED_EDGE('',*,*,#596,.T.);
#645 = ORIENTED_EDGE('',*,*,#633,.T.);
#646 = EDGE_LOOP('',(#642,#643,#644,#645));
#647 = AXIS2_PLACEMENT_3D('',#546,#24,#17);
#648 = PLANE('',#647);
#649 = FACE_OUTER_BOUND('',#646,.T.);
#650 = ADVANCED_FACE('',(#649),#648,.T.);
#651 = VECTOR('',#1,1.);
#652 = CARTESIAN_POINT('',(700.,150.,10.));
#653 = LINE('',#652,#651);
#654 = VERTEX_POINT('',#652);
#655 = CARTESIAN_POINT('',(700.,250.,10.));
#656 = VERTEX_POINT('',#655);
#657 = EDGE_CURVE('',#654,#656,#653,.T.);
#658 = ORIENTED_EDGE('',*,*,#657,.T.);
#659 = VECTOR('',#10,1.);
#660 = LINE('',#655,#659);
#661 = CARTESIAN_POINT('',(760.,250.,10.));
#662 = VERTEX_POINT('',#661);
#663 = EDGE_CURVE('',#656,#662,#660,.T.);
#664 = ORIENTED_EDGE('',*,*,#663,.T.);
#665 = VECTOR('',#17,1.);
#666 = LINE('',#661,#665);
#667 = CARTESIAN_POINT('',(760.,150.,10.));
#668 = VERTEX_POINT('',#667);
#669 = EDGE_CURVE('',#662,#668,#666,.T.);
#670 = ORIENTED_EDGE('',*,*,#669,.T.);
#671 = VECTOR('',#24,1.);
#672 = LINE('',#667,#671);
#673 = EDGE_CURVE('',#668,#654,#672,.T.);
#674 = ORIENTED_EDGE('',*,*,#673,.T.);
#675 = EDGE_LOOP('',(#658,#664,#670,#674));
#676 = AXIS2_PLACEMENT_3D('',#652,#143,#10);
#677 = PLANE('',#676);
#678 = FACE_OUTER_BOUND('',#675,.T.);
#679 = ADVANCED_FACE('',(#678),#677,.T.);
#680 = VECTOR('',#10,1.);
#681 = CARTESIAN_POINT('',(700.,150.,90.));
#682 = LINE('',#681,#680);
#683 = VERTEX_POINT('',#681);
#684 = CARTESIAN_POINT('',(760.,150.,90.));
#685 = VERTEX_POINT('',#684);
#686 = EDGE_CURVE('',#683,#685,#682,.T.);
#687 = ORIENTED_EDGE('',*,*,#686,.T.);
#688 = VECTOR('',#1,1.);
#689 = LINE('',#684,#688);
#690 = CARTESIAN_POINT('',(760.,250.,90.));
#691 = VERTEX_POINT('',#690);
#692 = EDGE_CURVE('',#685,#691,#689,.T.);
#693 = ORIENTED_EDGE('',*,*,#692,.T.);
#694 = VECTOR('',#24,1.);
#695 = LINE('',#690,#694);
#696 = CARTESIAN_POINT('',(700.,250.,90.));
#697 = VERTEX_POINT('',#696);
#698 = EDGE_CURVE('',#691,#697,#695,.T.);
#699 = ORIENTED_EDGE('',*,*,#698,.T.);
#700 = VECTOR('',#17,1.);
#701 = LINE('',#696,#700);
#702 = EDGE_CURVE('',#697,#683,#701,.T.);
#703 = ORIENTED_EDGE('',*,*,#702,.T.);
#704 = EDGE_LOOP('',(#687,#693,#699,#703));
#705 = AXIS2_PLACEMENT_3D('',#681,#31,#10);
#706 = PLANE('',#705);
#707 = FACE_OUTER_BOUND('',#704,.T.);
#708 = ADVANCED_FACE('',(#707),#706,.T.);
#709 = ORIENTED_EDGE('',*,*,#673,.T.);
#710 = VECTOR('',#31,1.);
#711 = LINE('',#667,#710);
#712 = EDGE_CURVE('',#668,#685,#711,.T.);
#713 = ORIENTED_EDGE('',*,*,#712,.T.);
#714 = ORIENTED_EDGE('',*,*,#686,.T.);
#715 = VECTOR('',#143,1.);
#716 = LINE('',#681,#715);
#717 = EDGE_CURVE('',#683,#654,#716,.T.);
#718 = ORIENTED_EDGE('',*,*,#717,.T.);
#719 = EDGE_LOOP('',(#709,#713,#714,#718));
#720 = AXIS2_PLACEMENT_3D('',#652,#17,#10);
#721 = PLANE('',#720);
#722 = FACE_OUTER_BOUND('',#719,.T.);
#723 = ADVANCED_FACE('',(#722),#721,.T.);
#724 = ORIENTED_EDGE('',*,*,#669,.T.);
#725 = VECTOR('',#31,1.);
#726 = LINE('',#661,#725);
#727 = EDGE_CURVE('',#662,#691,#726,.T.);
#728 = ORIENTED_EDGE('',*,*,#727,.T.);
#729 = ORIENTED_EDGE('',*,*,#692,.T.);
#730 = ORIENTED_EDGE('',*,*,#712,.T.);
#731 = EDGE_LOOP('',(#724,#728,#729,#730));
#732 = AXIS2_PLACEMENT_3D('',#667,#10,#1);
#733 = PLANE('',#732);
#734 = FACE_OUTER_BOUND('',#731,.T.);
#735 = ADVANCED_FACE('',(#734),#733,.T.);
#736 = ORIENTED_EDGE('',*,*,#663,.T.);
#737 = VECTOR('',#31,1.);
#738 = LINE('',#655,#737);
#739 = EDGE_CURVE('',#656,#697,#738,.T.);
#740 = ORIENTED_EDGE('',*,*,#739,.T.);
#741 = ORIENTED_EDGE('',*,*,#698,.T.);
#742 = ORIENTED_EDGE('',*,*,#727,.T.);
#743 = EDGE_LOOP('',(#736,#740,#741,#742));
#744 = AXIS2_PLACEMENT_3D('',#655,#1,#24);
#745 = PLANE('',#744);
#746 = FACE_OUTER_BOUND('',#743,.T.);
#747 = ADVANCED_FACE('',(#746),#745,.T.);
#748 = ORIENTED_EDGE('',*,*,#657,.T.);
#749 = ORIENTED_EDGE('',*,*,#717,.T.);
#750 = ORIENTED_EDGE('',*,*,#702,.T.);
#751 = ORIENTED_EDGE('',*,*,#739,.T.);
#752 = EDGE_LOOP('',(#748,#749,#750,#751));
#753 = AXIS2_PLACEMENT_3D('',#652,#24,#17);
#754 = PLANE('',#753);
#755 = FACE_OUTER_BOUND('',#752,.T.);
#756 = ADVANCED_FACE('',(#755),#754,.T.);
#757 = VECTOR('',#1,1.);
#758 = CARTESIAN_POINT('',(200.,40.,10.));
#759 = LINE('',#758,#757);
#760 = VERTEX_POINT('',#758);
#761 = CARTESIAN_POINT('',(200.,80.,10.));
#762 = VERTEX_POINT('',#761);
#763 = EDGE_CURVE('',#760,#762,#759,.T.);
#764 = ORIENTED_EDGE('',*,*,#763,.T.);
#765 = VECTOR('',#10,1.);
#766 = LINE('',#761,#765);
#767 = CARTESIAN_POINT('',(600.,80.,10.));
#768 = VERTEX_POINT('',#767);
#769 = EDGE_CURVE('',#762,#768,#766,.T.);
#770 = ORIENTED_EDGE('',*,*,#769,.T.);
#771 = VECTOR('',#17,1.);
#772 = LINE('',#767,#771);
#773 = CARTESIAN_POINT('',(600.,40.,10.));
#774 = VERTEX_POINT('',#773);
#775 = EDGE_CURVE('',#768,#774,#772,.T.);
#776 = ORIENTED_EDGE('',*,*,#775,.T.);
#777 = VECTOR('',#24,1.);
#778 = LINE('',#773,#777);
#779 = EDGE_CURVE('',#774,#760,#778,.T.);
#780 = ORIENTED_EDGE('',*,*,#779,.T.);
#781 = EDGE_LOOP('',(#764,#770,#776,#780));
#782 = AXIS2_PLACEMENT_3D('',#758,#143,#10);
#783 = PLANE('',#782);
#784 = FACE_OUTER_BOUND('',#781,.T.);
#785 = ADVANCED_FACE('',(#784),#783,.T.);
#786 = VECTOR('',#10,1.);
#787 = CARTESIAN_POINT('',(200.,40.,60.));
#788 = LINE('',#787,#786);
#789 = VERTEX_POINT('',#787);
#790 = CARTESIAN_POINT('',(600.,40.,60.));
#791 = VERTEX_POINT('',#790);
#792 = EDGE_CURVE('',#789,#791,#788,.T.);
#793 = ORIENTED_EDGE('',*,*,#792,.T.);
#794 = VECTOR('',#1,1.);
#795 = LINE('',#790,#794);
#796 = CARTESIAN_POINT('',(600.,80.,60.));
#797 = VERTEX_POINT('',#796);
#798 = EDGE_CURVE('',#791,#797,#795,.T.);
#799 = ORIENTED_EDGE('',*,*,#798,.T.);
#800 = VECTOR('',#24,1.);
#801 = LINE('',#796,#800);
#802 = CARTESIAN_POINT('',(200.,80.,60.));
#803 = VERTEX_POINT('',#802);
#804 = EDGE_CURVE('',#797,#803,#801,.T.);
#805 = ORIENTED_EDGE('',*,*,#804,.T.);
#806 = VECTOR('',#17,1.);
#807 = LINE('',#802,#806);
#808 = EDGE_CURVE('',#803,#789,#807,.T.);
#809 = ORIENTED_EDGE('',*,*,#808,.T.);
#810 = EDGE_LOOP('',(#793,#799,#805,#809));
#811 = AXIS2_PLACEMENT_3D('',#787,#31,#10);
#812 = PLANE('',#811);
#813 = FACE_OUTER_BOUND('',#810,.T.);
#814 = ADVANCED_FACE('',(#813),#812,.T.);
#815 = ORIENTED_EDGE('',*,*,#779,.T.);
#816 = VECTOR('',#31,1.);
#817 = LINE('',#773,#816);
#818 = EDGE_CURVE('',#774,#791,#817,.T.);
#819 = ORIENTED_EDGE('',*,*,#818,.T.);
#820 = ORIENTED_EDGE('',*,*,#792,.T.);
#821 = VECTOR('',#143,1.);
#822 = LINE('',#787,#821);
#823 = EDGE_CURVE('',#789,#760,#822,.T.);
#824 = ORIENTED_EDGE('',*,*,#823,.T.);
#825 = EDGE_LOOP('',(#815,#819,#820,#824));
#826 = AXIS2_PLACEMENT_3D('',#758,#17,#10);
#827 = PLANE('',#826);
#828 = FACE_OUTER_BOUND('',#825,.T.);
#829 = ADVANCED_FACE('',(#828),#827,.T.);
#830 = ORIENTED_EDGE('',*,*,#775,.T.);
#831 = VECTOR('',#31,1.);
#832 = LINE('',#767,#831);
#833 = EDGE_CURVE('',#768,#797,#832,.T.);
#834 = ORIENTED_EDGE('',*,*,#833,.T.);
#835 = ORIENTED_EDGE('',*,*,#798,.T.);
#836 = ORIENTED_EDGE('',*,*,#818,.T.);
#837 = EDGE_LOOP('',(#830,#834,#835,#836));
#838 = AXIS2_PLACEMENT_3D('',#773,#10,#1);
#839 = PLANE('',#838);
#840 = FACE_OUTER_BOUND('',#837,.T.);
#841 = ADVANCED_FACE('',(#840),#839,.T.);
#842 = ORIENTED_EDGE('',*,*,#769,.T.);
#843 = VECTOR('',#31,1.);
#844 = LINE('',#761,#843);
#845 = EDGE_CURVE('',#762,#803,#844,.T.);
#846 = ORIENTED_EDGE('',*,*,#845,.T.);
#847 = ORIENTED_EDGE('',*,*,#804,.T.);
#848 = ORIENTED_EDGE('',*,*,#833,.T.);
#849 = EDGE_LOOP('',(#842,#846,#847,#848));
#850 = AXIS2_PLACEMENT_3D('',#761,#1,#24);
#851 = PLANE('',#850);
#852 = FACE_OUTER_BOUND('',#849,.T.);
#853 = ADVANCED_FACE('',(#852),#851,.T.);
#854 = ORIENTED_EDGE('',*,*,#763,.T.);
#855 = ORIENTED_EDGE('',*,*,#823,.T.);
#856 = ORIENTED_EDGE('',*,*,#808,.T.);
#857 = ORIENTED_EDGE('',*,*,#845,.T.);
#858 = EDGE_LOOP('',(#854,#855,#856,#857));
#859 = AXIS2_PLACEMENT_3D('',#758,#24,#17);
#860 = PLANE('',#859);
#861 = FACE_OUTER_BOUND('',#858,.T.);
#862 = ADVANCED_FACE('',(#861),#860,.T.);
#872 = CLOSED_SHELL('',(#155,#304,#319,#331,#343,#352,#367,#376,#391,#400,#415,#424,#439,#448,#463,#472,#487,#496,#511,#520,#535,#544));
#873 = MANIFOLD_SOLID_BREP('Platine 800x400 ep.10',#872);
#874 = AXIS2_PLACEMENT_3D('',#3,#31,#10);
#875 = ADVANCED_BREP_SHAPE_REPRESENTATION('Platine 800x400 ep.10',(#874,#873),#871);
#876 = PRODUCT('Platine 800x400 ep.10','Platine 800x400 ep.10','',(#865));
#877 = PRODUCT_DEFINITION_FORMATION('','',#876);
#878 = PRODUCT_DEFINITION('design','',#877,#866);
#879 = PRODUCT_DEFINITION_SHAPE('','',#878);
#880 = SHAPE_DEFINITION_REPRESENTATION(#879,#875);
#881 = CLOSED_SHELL('',(#573,#602,#617,#629,#641,#650));
#882 = MANIFOLD_SOLID_BREP('Support connecteur G',#881);
#883 = AXIS2_PLACEMENT_3D('',#3,#31,#10);
#884 = ADVANCED_BREP_SHAPE_REPRESENTATION('Support connecteur G',(#883,#882),#871);
#885 = PRODUCT('Support connecteur G','Support connecteur G','',(#865));
#886 = PRODUCT_DEFINITION_FORMATION('','',#885);
#887 = PRODUCT_DEFINITION('design','',#886,#866);
#888 = PRODUCT_DEFINITION_SHAPE('','',#887);
#889 = SHAPE_DEFINITION_REPRESENTATION(#888,#884);
#890 = CLOSED_SHELL('',(#679,#708,#723,#735,#747,#756));
#891 = MANIFOLD_SOLID_BREP('Support connecteur D',#890);
#892 = AXIS2_PLACEMENT_3D('',#3,#31,#10);
#893 = ADVANCED_BREP_SHAPE_REPRESENTATION('Support connecteur D',(#892,#891),#871);
#894 = PRODUCT('Support connecteur D','Support connecteur D','',(#865));
#895 = PRODUCT_DEFINITION_FORMATION('','',#894);
#896 = PRODUCT_DEFINITION('design','',#895,#866);
#897 = PRODUCT_DEFINITION_SHAPE('','',#896);
#898 = SHAPE_DEFINITION_REPRESENTATION(#897,#893);
#899 = CLOSED_SHELL('',(#785,#814,#829,#841,#853,#862));
#900 = MANIFOLD_SOLID_BREP('Traverse',#899);
#901 = AXIS2_PLACEMENT_3D('',#3,#31,#10);
#902 = ADVANCED_BREP_SHAPE_REPRESENTATION('Traverse',(#901,#900),#871);
#903 = PRODUCT('Traverse','Traverse','',(#865));
#904 = PRODUCT_DEFINITION_FORMATION('','',#903);
#905 = PRODUCT_DEFINITION('design','',#904,#866);
#906 = PRODUCT_DEFINITION_SHAPE('','',#905);
#907 = SHAPE_DEFINITION_REPRESENTATION(#906,#902);
ENDSEC;
END-ISO-10303-21;
